<?xml version="1.0" encoding="utf-8"?>
<svg
    xmlns="http://www.w3.org/2000/svg"
    xmlns:xlink="http://www.w3.org/1999/xlink">
    <symbol 
        id="share-icon"
        viewBox="0 0 18 21"
        xmlns="http://www.w3.org/2000/svg"><path
        d="M15 14.58C14.24 14.58 13.56 14.88 13.04 15.35L5.91 11.2C5.96 10.97 6 10.74 6 10.5C6 10.26 5.96 10.03 5.91 9.8L12.96 5.69C13.5 6.19 14.21 6.5 15 6.5C16.66 6.5 18 5.16 18 3.5C18 1.84 16.66 0.5 15 0.5C13.34 0.5 12 1.84 12 3.5C12 3.74 12.04 3.97 12.09 4.2L5.04 8.31C4.5 7.81 3.79 7.5 3 7.5C1.34 7.5 0 8.84 0 10.5C0 12.16 1.34 13.5 3 13.5C3.79 13.5 4.5 13.19 5.04 12.69L12.16 16.85C12.11 17.06 12.08 17.28 12.08 17.5C12.08 19.11 13.39 20.42 15 20.42C16.61 20.42 17.92 19.11 17.92 17.5C17.92 15.89 16.61 14.58 15 14.58Z"/>
    </symbol>
    <symbol 
        id="saved-cart"
        viewBox="0 0 18 21"
        xmlns="http://www.w3.org/2000/svg"><path
        d="M14.5 0.5C12.76 0.5 11.09 1.31 10 2.59C8.91 1.31 7.24 0.5 5.5 0.5C2.42 0.5 0 2.92 0 6C0 9.78 3.4 12.86 8.55 17.54L10 18.85L11.45 17.53C16.6 12.86 20 9.78 20 6C20 2.92 17.58 0.5 14.5 0.5ZM10.1 16.05L10 16.15L9.9 16.05C5.14 11.74 2 8.89 2 6C2 4 3.5 2.5 5.5 2.5C7.04 2.5 8.54 3.49 9.07 4.86H10.94C11.46 3.49 12.96 2.5 14.5 2.5C16.5 2.5 18 4 18 6C18 8.89 14.86 11.74 10.1 16.05Z"/>
    </symbol>
    <symbol
        id="correct-symbol"
        viewBox="0 0 10 8"
        xmlns="http://www.w3.org/2000/svg"><path
        d="M9.33076 0.508293C9.05342 0.23096 8.60543 0.23096 8.3281 0.508293L3.37343 5.46296L1.81077 3.90029C1.53343 3.62296 1.08543 3.62296 0.808098 3.90029C0.530764 4.17763 0.530764 4.62563 0.808098 4.90296L2.87209 6.96696C3.01076 7.10563 3.19209 7.17496 3.37343 7.17496C3.55476 7.17496 3.7361 7.10563 3.87476 6.96696L9.33076 1.51096C9.60809 1.23896 9.60809 0.785626 9.33076 0.508293Z"/>
    </symbol>
    <symbol
        id="warning-symbol"
        viewBox="0 0 3 9"
        xmlns="http://www.w3.org/2000/svg"><path
        d="M2.01255 5.5L2.22855 1.672V0.232H0.404547V1.66L0.632547 5.5H2.01255ZM2.14455 8.5V6.508H0.452547V8.5H2.14455Z"/>
    </symbol>
    <symbol
        id="circle"
        viewBox="0 0 3 9"
        xmlns="http://www.w3.org/2000/svg"><path
        d="M8 16.5C12.4183 16.5 16 12.9183 16 8.5C16 4.08172 12.4183 0.5 8 0.5C3.58172 0.5 0 4.08172 0 8.5C0 12.9183 3.58172 16.5 8 16.5Z"/>
    </symbol>

    
</svg>
